{
.appVersion = "1271";
copyright = "Copyright 2018 Google LLC. All Rights Reserved.";
customParameters = (
{
name = glyphOrder;
value = (
.notdef,
NULL,
CR,
space,
uni00A0,
zeroguru,
oneguru,
twoguru,
threeguru,
fourguru,
fiveguru,
sixguru,
sevenguru,
eightguru,
nineguru,
u11280,
u11281,
u11282,
u11283,
u11284,
u11285,
u11286,
u11288,
u1128A,
u1128B,
u1128C,
u1128D,
u1128F,
u11290,
u11291,
u11292,
u11293,
u11294,
u11295,
u11296,
u11297,
u11298,
u11299,
u1129A,
u1129B,
u1129C,
u1129D,
u1129F,
u112A0,
u112A1,
u112A2,
u112A3,
u112A4,
u112A5,
u112A6,
u112A7,
u112A8,
u112A9
);
},
{
name = description;
value = "Designed by Monotype design team.";
},
{
name = license;
value = "This Font Software is licensed under the SIL Open Font License, Version 1.1. This Font Software is distributed on an \"AS IS\" BASIS, WITHOUT WARRANTIES OR CONDITIONS OF ANY KIND, either express or implied. See the SIL Open Font License for the specific language, permissions and limitations governing your use of this Font Software.";
},
{
name = licenseURL;
value = "http://scripts.sil.org/OFL";
},
{
name = vendorID;
value = GOOG;
},
{
name = unicodeRanges;
value = (
0,
1,
17,
57
);
},
{
name = trademark;
value = "Noto is a trademark of Google Inc.";
},
{
name = "Has WWS Names";
value = 1;
},
{
name = versionString;
value = "Version 2.000";
},
{
name = fsType;
value = (
);
},
{
name = codePageRanges;
value = (
"1252"
);
}
);
date = "2018-02-05 23:11:58 +0000";
designer = "Monotype Design Team";
designerURL = "http://www.monotype.com/studio";
disablesAutomaticAlignment = 1;
disablesNiceNames = 1;
familyName = "Noto Sans Multani";
fontMaster = (
{
alignmentZones = (
"{720, 15}",
"{630, 15}",
"{510, 15}",
"{0, -15}",
"{-240, -15}"
);
ascender = 720;
capHeight = 630;
customParameters = (
{
name = typoAscender;
value = 1069;
},
{
name = typoDescender;
value = -293;
},
{
name = typoLineGap;
value = 0;
},
{
name = winAscent;
value = 1069;
},
{
name = winDescent;
value = 293;
},
{
name = hheaAscender;

glyphs = (
{
glyphname = .notdef;
lastChange = "2018-02-06 14:55:38 +0000";
layers = (
{
layerId = UUID0;
paths = (
{
closed = 1;
nodes = (
"505 0 LINE",
"505 714 LINE",
"94 714 LINE",
"94 0 LINE"
);
},
{
closed = 1;
nodes = (
"145 663 LINE",
"454 663 LINE",
"454 51 LINE",
"145 51 LINE"
);
}
);
width = 600;
}
);
},
{
glyphname = zeroguru;
lastChange = "2018-02-06 14:55:38 +0000";
layers = (
{
layerId = UUID0;
paths = (
{
closed = 1;
nodes = (
"420 78 OFFCURVE",
"513 171 OFFCURVE",
"513 315 CURVE SMOOTH",
"513 459 OFFCURVE",
"418 553 OFFCURVE",
"275 553 CURVE SMOOTH",
"137 553 OFFCURVE",
"39 460 OFFCURVE",
"39 316 CURVE SMOOTH",
"39 172 OFFCURVE",
"131 78 OFFCURVE",
"276 78 CURVE SMOOTH"
);
},
{
closed = 1;
nodes = (
"178 151 OFFCURVE",
"121 214 OFFCURVE",
"121 313 CURVE SMOOTH",
"121 416 OFFCURVE",
"180 480 OFFCURVE",
"277 480 CURVE SMOOTH",
"372 480 OFFCURVE",
"431 417 OFFCURVE",
"431 317 CURVE SMOOTH",
"431 213 OFFCURVE",
"373 151 OFFCURVE",
"273 151 CURVE SMOOTH"
);
}
);
width = 551;
}
);
note = zeroguru;
unicode = 0A66;
},
{
glyphname = oneguru;
lastChange = "2018-02-06 14:55:38 +0000";
layers = (
{
layerId = UUID0;
paths = (
{
closed = 1;
nodes = (
"510 64 LINE",
"449 64 OFFCURVE",
"436 83 OFFCURVE",
"436 156 CURVE SMOOTH",
"436 446 LINE SMOOTH",
"436 489 OFFCURVE",
"431 521 OFFCURVE",
"420 544 CURVE SMOOTH",
"399 589 OFFCURVE",
"339 632 OFFCURVE",
"247 632 CURVE SMOOTH",
"134 632 OFFCURVE",
"60 560 OFFCURVE",
"60 464 CURVE SMOOTH",
"60 361 OFFCURVE",
"129 298 OFFCURVE",
"236 298 CURVE SMOOTH",
"281 298 OFFCURVE",
"321 308 OFFCURVE",
"355 328 CURVE",
"355 146 LINE SMOOTH",
"355 41 OFFCURVE",
"401 -9 OFFCURVE",
"500 -9 CURVE"
);
},
{
closed = 1;
nodes = (
"176 370 OFFCURVE",
"141 405 OFFCURVE",
"141 464 CURVE SMOOTH",
"141 524 OFFCURVE",
"178 560 OFFCURVE",
"243 560 CURVE SMOOTH",
"316 560 OFFCURVE",
"355 526 OFFCURVE",
"355 454 CURVE SMOOTH",
"355 411 LINE",
"323 382 OFFCURVE",
"285 370 OFFCURVE",
"236 370 CURVE SMOOTH"
);
}
);
width = 551;
}
);
note = oneguru;
unicode = 0A67;
},
{
glyphname = twoguru;
lastChange = "2018-02-06 14:55:38 +0000";
layers = (
{
layerId = UUID0;
paths = (
{
closed = 1;
nodes = (
"501 35 LINE",
"458 80 OFFCURVE",
"402 127 OFFCURVE",
"333 174 CURVE",
"426 215 OFFCURVE",
"479 299 OFFCURVE",
"479 404 CURVE SMOOTH",
"479 547 OFFCURVE",
"389 632 OFFCURVE",
"234 632 CURVE SMOOTH",
"166 632 OFFCURVE",
"102 618 OFFCURVE",
"43 590 CURVE",
"71 525 LINE",
"120 548 OFFCURVE",
"172 559 OFFCURVE",
"228 559 CURVE SMOOTH",
"337 559 OFFCURVE",
"397 503 OFFCURVE",
"397 402 CURVE SMOOTH",
"397 319 OFFCURVE",
"351 256 OFFCURVE",
"267 229 CURVE",
"226 253 OFFCURVE",
"184 265 OFFCURVE",
"143 265 CURVE SMOOTH",
"92 265 OFFCURVE",
"65 246 OFFCURVE",
"65 214 CURVE SMOOTH",
"65 170 OFFCURVE",
"111 148 OFFCURVE",
"200 148 CURVE SMOOTH",
"214 148 OFFCURVE",
"226 149 OFFCURVE",
"236 150 CURVE",
"306 106 OFFCURVE",
"375 50 OFFCURVE",
"443 -18 CURVE"
);
}
);
width = 551;
}
);
note = twoguru;
unicode = 0A68;
},
{
glyphname = threeguru;
lastChange = "2018-02-06 14:55:38 +0000";
layers = (
{
layerId = UUID0;
paths = (
{
closed = 1;
nodes = (
"483 -14 LINE",
"442 26 OFFCURVE",
"398 62 OFFCURVE",
"351 93 CURVE",
"440 118 OFFCURVE",
"485 167 OFFCURVE",
"485 236 CURVE SMOOTH",
"485 289 OFFCURVE",
"454 332 OFFCURVE",
"393 361 CURVE",
"450 393 OFFCURVE",
"481 437 OFFCURVE",
"481 485 CURVE SMOOTH",
"481 577 OFFCURVE",
"399 632 OFFCURVE",
"254 632 CURVE SMOOTH",
"180 632 OFFCURVE",
"110 618 OFFCURVE",
"45 590 CURVE",
"73 525 LINE",
"126 548 OFFCURVE",
"184 559 OFFCURVE",
"249 559 CURVE SMOOTH",
"350 559 OFFCURVE",
"399 534 OFFCURVE",
"399 481 CURVE SMOOTH",
"399 440 OFFCURVE",
"366 410 OFFCURVE",
"310 395 CURVE",
"249 418 OFFCURVE",
"215 421 OFFCURVE",
"176 421 CURVE SMOOTH",
"127 421 OFFCURVE",
"96 404 OFFCURVE",
"96 371 CURVE SMOOTH",
"96 334 OFFCURVE",
"131 314 OFFCURVE",
"202 314 CURVE SMOOTH",
"235 314 OFFCURVE",
"270 318 OFFCURVE",
"305 327 CURVE",
"368 312 OFFCURVE",
"404 280 OFFCURVE",
"404 237 CURVE SMOOTH",
"404 188 OFFCURVE",
"355 155 OFFCURVE",
"271 147 CURVE",
"225 170 OFFCURVE",
"179 182 OFFCURVE",
"134 182 CURVE SMOOTH",
"85 182 OFFCURVE",
"57 164 OFFCURVE",
"57 135 CURVE SMOOTH",
"57 114 OFFCURVE",
"68 99 OFFCURVE",
"91 89 CURVE SMOOTH",
"113 79 OFFCURVE",
"146 74 OFFCURVE",
"190 74 CURVE SMOOTH",
"212 74 OFFCURVE",
"230 75 OFFCURVE",
"245 76 CURVE",
"300 45 OFFCURVE",
"360 -3 OFFCURVE",
"425 -66 CURVE"
);
}
);
width = 551;
}
);
note = threeguru;
unicode = 0A69;
},
{
glyphname = fourguru;
lastChange = "2018-02-06 14:55:38 +0000";
layers = (
{
layerId = UUID0;
paths = (
{
closed = 1;
nodes = (
"407 -8 OFFCURVE",
"486 58 OFFCURVE",
"486 165 CURVE SMOOTH",
"486 224 OFFCURVE",
"459 270 OFFCURVE",
"404 298 CURVE",
"469 329 OFFCURVE",
"506 385 OFFCURVE",
"506 454 CURVE SMOOTH",
"506 537 OFFCURVE",
"445 610 OFFCURVE",
"332 627 CURVE",
"322 558 LINE",
"391 543 OFFCURVE",
"426 508 OFFCURVE",
"426 449 CURVE SMOOTH",
"426 376 OFFCURVE",
"375 338 OFFCURVE",
"272 338 CURVE SMOOTH",
"176 338 OFFCURVE",
"125 378 OFFCURVE",
"125 449 CURVE SMOOTH",
"125 506 OFFCURVE",
"161 546 OFFCURVE",
"229 558 CURVE",
"219 627 LINE",
"108 611 OFFCURVE",
"45 537 OFFCURVE",
"45 454 CURVE SMOOTH",
"45 385 OFFCURVE",
"80 329 OFFCURVE",
"147 298 CURVE",
"94 271 OFFCURVE",
"64 226 OFFCURVE",
"64 167 CURVE SMOOTH",
"64 58 OFFCURVE",
"144 -8 OFFCURVE",
"276 -8 CURVE SMOOTH"
);
},
{
closed = 1;
nodes = (
"191 64 OFFCURVE",
"146 101 OFFCURVE",
"146 165 CURVE SMOOTH",
"146 228 OFFCURVE",
"193 266 OFFCURVE",
"278 266 CURVE SMOOTH",
"355 266 OFFCURVE",
"404 228 OFFCURVE",
"404 167 CURVE SMOOTH",
"404 100 OFFCURVE",
"359 64 OFFCURVE",
"274 64 CURVE SMOOTH"
);
}
);
width = 551;
}
);
note = fourguru;
unicode = 0A6A;
},
{
glyphname = fiveguru;
lastChange = "2018-02-06 14:55:38 +0000";
layers = (
{
layerId = UUID0;
paths = (
{
closed = 1;
nodes = (
"470 0 LINE",
"470 622 LINE",
"389 622 LINE",
"389 261 LINE",
"352 240 OFFCURVE",
"314 230 OFFCURVE",
"275 230 CURVE SMOOTH",
"211 230 OFFCURVE",
"168 263 OFFCURVE",
"128 343 CURVE",
"167 380 OFFCURVE",
"183 422 OFFCURVE",
"183 477 CURVE SMOOTH",
"183 525 OFFCURVE",
"168 577 OFFCURVE",
"139 632 CURVE",
"64 604 LINE",
"93 552 OFFCURVE",
"104 515 OFFCURVE",
"104 474 CURVE SMOOTH",
"104 425 OFFCURVE",
"83 389 OFFCURVE",
"34 349 CURVE",
"86 221 OFFCURVE",
"166 157 OFFCURVE",
"273 157 CURVE SMOOTH",
"315 157 OFFCURVE",
"354 164 OFFCURVE",
"389 179 CURVE",
"389 0 LINE"
);
}
);
width = 551;
}
);
note = fiveguru;
unicode = 0A6B;
},
{
glyphname = sixguru;
lastChange = "2018-02-06 14:55:38 +0000";
layers = (
{
layerId = UUID0;
paths = (
{
closed = 1;
nodes = (
"376 -9 OFFCURVE",
"446 5 OFFCURVE",
"510 32 CURVE",
"481 97 LINE",
"431 74 OFFCURVE",
"374 63 OFFCURVE",
"309 63 CURVE SMOOTH",
"204 63 OFFCURVE",
"155 93 OFFCURVE",
"155 158 CURVE SMOOTH",
"155 201 OFFCURVE",
"186 233 OFFCURVE",
"239 250 CURVE",
"286 234 OFFCURVE",
"331 226 OFFCURVE",
"373 226 CURVE SMOOTH",
"422 226 OFFCURVE",
"453 243 OFFCURVE",
"453 276 CURVE SMOOTH",
"453 313 OFFCURVE",
"417 333 OFFCURVE",
"348 333 CURVE SMOOTH",
"311 333 OFFCURVE",
"276 329 OFFCURVE",
"241 320 CURVE",
"186 333 OFFCURVE",
"155 357 OFFCURVE",
"155 402 CURVE SMOOTH",
"155 459 OFFCURVE",
"219 492 OFFCURVE",
"336 492 CURVE",
"362 460 OFFCURVE",
"394 444 OFFCURVE",
"432 444 CURVE SMOOTH",
"475 444 OFFCURVE",
"500 462 OFFCURVE",
"500 493 CURVE SMOOTH",
"500 530 OFFCURVE",
"463 552 OFFCURVE",
"390 559 CURVE",
"367 585 OFFCURVE",
"356 614 OFFCURVE",
"356 647 CURVE SMOOTH",
"356 692 OFFCURVE",
"385 717 OFFCURVE",
"440 717 CURVE SMOOTH",
"458 717 OFFCURVE",
"473 716 OFFCURVE",
"486 714 CURVE",
"496 783 LINE",
"476 786 OFFCURVE",
"455 787 OFFCURVE",
"434 787 CURVE SMOOTH",
"333 787 OFFCURVE",
"276 735 OFFCURVE",
"276 659 CURVE SMOOTH",
"276 624 OFFCURVE",
"285 591 OFFCURVE",
"304 561 CURVE",
"157 553 OFFCURVE",
"73 496 OFFCURVE",
"73 405 CURVE SMOOTH",
"73 352 OFFCURVE",
"100 312 OFFCURVE",
"156 285 CURVE",
"101 250 OFFCURVE",
"74 207 OFFCURVE",
"74 156 CURVE SMOOTH",
"74 51 OFFCURVE",
"153 -9 OFFCURVE",
"300 -9 CURVE SMOOTH"
);
}
);
width = 551;
}
);
note = sixguru;
unicode = 0A6C;
},
{
glyphname = sevenguru;
lastChange = "2018-02-06 14:55:38 +0000";
layers = (
{
layerId = UUID0;
paths = (
{
closed = 1;
nodes = (
"285 7 OFFCURVE",
"503 137 OFFCURVE",
"503 369 CURVE SMOOTH",
"503 529 OFFCURVE",
"415 632 OFFCURVE",
"269 632 CURVE SMOOTH",
"155 632 OFFCURVE",
"73 564 OFFCURVE",
"73 469 CURVE SMOOTH",
"73 412 OFFCURVE",
"93 366 OFFCURVE",
"134 319 CURVE",
"202 355 LINE",
"169 387 OFFCURVE",
"153 422 OFFCURVE",
"153 461 CURVE SMOOTH",
"153 524 OFFCURVE",
"196 560 OFFCURVE",
"268 560 CURVE SMOOTH",
"364 560 OFFCURVE",
"421 484 OFFCURVE",
"421 368 CURVE SMOOTH",
"421 200 OFFCURVE",
"275 84 OFFCURVE",
"30 64 CURVE",
"30 -9 LINE"
);
}
);
width = 551;
}
);
note = sevenguru;
unicode = 0A6D;
},
{
glyphname = eightguru;
lastChange = "2018-02-06 14:55:38 +0000";
layers = (
{
layerId = UUID0;
paths = (
{
closed = 1;
nodes = (
"455 0 OFFCURVE",
"488 2 OFFCURVE",
"513 5 CURVE",
"506 78 LINE",
"479 74 OFFCURVE",
"454 72 OFFCURVE",
"431 72 CURVE SMOOTH",
"247 72 OFFCURVE",
"190 133 OFFCURVE",
"190 314 CURVE SMOOTH",
"190 476 LINE",
"510 476 LINE",
"510 547 LINE",
"190 547 LINE",
"190 577 LINE SMOOTH",
"190 613 OFFCURVE",
"175 632 OFFCURVE",
"147 632 CURVE SMOOTH",
"132 632 OFFCURVE",
"116 626 OFFCURVE",
"99 614 CURVE SMOOTH",
"64 590 OFFCURVE",
"36 547 OFFCURVE",
"36 514 CURVE SMOOTH",
"36 490 OFFCURVE",
"54 476 OFFCURVE",
"87 476 CURVE SMOOTH",
"110 476 LINE",
"110 297 LINE SMOOTH",
"110 86 OFFCURVE",
"204 0 OFFCURVE",
"415 0 CURVE SMOOTH"
);
}
);
width = 551;
}
);
note = eightguru;
unicode = 0A6E;
},
{
glyphname = nineguru;
lastChange = "2018-02-06 14:55:38 +0000";
layers = (
{
layerId = UUID0;
paths = (
{
closed = 1;
nodes = (
"455 0 OFFCURVE",
"488 2 OFFCURVE",
"513 5 CURVE",
"506 78 LINE",
"479 74 OFFCURVE",
"454 72 OFFCURVE",
"431 72 CURVE SMOOTH",
"247 72 OFFCURVE",
"190 133 OFFCURVE",
"190 314 CURVE SMOOTH",
"190 476 LINE",
"510 476 LINE",
"510 547 LINE",
"478 547 LINE",
"448 576 OFFCURVE",
"433 610 OFFCURVE",
"433 647 CURVE SMOOTH",
"433 692 OFFCURVE",
"462 717 OFFCURVE",
"517 717 CURVE SMOOTH",
"534 717 OFFCURVE",
"549 716 OFFCURVE",
"562 714 CURVE",
"572 783 LINE",
"552 786 OFFCURVE",
"531 787 OFFCURVE",
"510 787 CURVE SMOOTH",
"410 787 OFFCURVE",
"352 735 OFFCURVE",
"352 659 CURVE SMOOTH",
"352 619 OFFCURVE",
"364 582 OFFCURVE",
"389 547 CURVE",
"190 547 LINE",
"190 577 LINE SMOOTH",
"190 613 OFFCURVE",
"175 632 OFFCURVE",
"147 632 CURVE SMOOTH",
"98 632 OFFCURVE",
"36 564 OFFCURVE",
"36 514 CURVE SMOOTH",
"36 490 OFFCURVE",
"54 476 OFFCURVE",
"87 476 CURVE SMOOTH",
"110 476 LINE",
"110 297 LINE SMOOTH",
"110 86 OFFCURVE",
"204 0 OFFCURVE",
"415 0 CURVE SMOOTH"
);
}
);
width = 551;
}
);
note = nineguru;
unicode = 0A6F;
},
{
glyphname = u11280;
lastChange = "2018-02-06 14:55:38 +0000";
layers = (
{
layerId = UUID0;
paths = (
{
closed = 1;
nodes = (
"163 0 LINE",
"191 222 LINE SMOOTH",
"214 401 OFFCURVE",
"306 430 OFFCURVE",
"359 430 CURVE SMOOTH",
"407 430 OFFCURVE",
"472 408 OFFCURVE",
"472 283 CURVE SMOOTH",
"472 255 OFFCURVE",
"470 221 OFFCURVE",
"465 181 CURVE SMOOTH",
"442 0 LINE",
"528 0 LINE",
"572 339 LINE SMOOTH",
"594 509 OFFCURVE",
"622 640 OFFCURVE",
"704 640 CURVE SMOOTH",
"713 640 OFFCURVE",
"722 639 OFFCURVE",
"731 637 CURVE",
"745 714 LINE",
"735 719 OFFCURVE",
"723 720 OFFCURVE",
"711 720 CURVE SMOOTH",
"598 720 OFFCURVE",
"529 627 OFFCURVE",
"503 450 CURVE",
"475 486 OFFCURVE",
"431 510 OFFCURVE",
"362 510 CURVE SMOOTH",
"284 510 OFFCURVE",
"219 479 OFFCURVE",
"183 424 CURVE",
"171 477 OFFCURVE",
"128 520 OFFCURVE",
"69 536 CURVE",
"50 456 LINE",
"86 441 OFFCURVE",
"115 409 OFFCURVE",
"115 351 CURVE SMOOTH",
"115 333 OFFCURVE",
"114 301 OFFCURVE",
"102 206 CURVE SMOOTH",
"77 0 LINE"
);
}
);
width = 715;
}
);
unicode = 11280;
},
{
glyphname = u11281;
lastChange = "2018-02-06 14:55:38 +0000";
layers = (
{
layerId = UUID0;
paths = (
{
closed = 1;
nodes = (
"362 -25 OFFCURVE",
"433 71 OFFCURVE",
"433 179 CURVE SMOOTH",
"433 239 OFFCURVE",
"416 305 OFFCURVE",
"371 367 CURVE",
"299 321 LINE",
"328 281 OFFCURVE",
"345 229 OFFCURVE",
"345 182 CURVE SMOOTH",
"345 119 OFFCURVE",
"314 55 OFFCURVE",
"241 55 CURVE SMOOTH",
"163 55 OFFCURVE",
"118 139 OFFCURVE",
"118 242 CURVE SMOOTH",
"118 412 OFFCURVE",
"226 641 OFFCURVE",
"446 641 CURVE SMOOTH",
"458 641 OFFCURVE",
"471 640 OFFCURVE",
"484 639 CURVE",
"496 718 LINE",
"481 719 OFFCURVE",
"466 720 OFFCURVE",
"451 720 CURVE SMOOTH",
"172 720 OFFCURVE",
"30 463 OFFCURVE",
"30 240 CURVE SMOOTH",
"30 96 OFFCURVE",
"100 -25 OFFCURVE",
"246 -25 CURVE SMOOTH"
);
}
);
width = 476;
}
);
unicode = 11281;
},
{
glyphname = u11282;
lastChange = "2018-02-06 14:55:38 +0000";
layers = (
{
layerId = UUID0;
paths = (
{
closed = 1;
nodes = (
"519 -15 OFFCURVE",
"613 60 OFFCURVE",
"613 155 CURVE SMOOTH",
"613 224 OFFCURVE",
"570 262 OFFCURVE",
"514 283 CURVE",
"554 303 OFFCURVE",
"587 336 OFFCURVE",
"587 390 CURVE SMOOTH",
"587 459 OFFCURVE",
"527 519 OFFCURVE",
"410 519 CURVE SMOOTH",
"364 519 OFFCURVE",
"321 513 OFFCURVE",
"277 498 CURVE",
"299 426 LINE",
"328 437 OFFCURVE",
"363 445 OFFCURVE",
"405 445 CURVE SMOOTH",
"476 445 OFFCURVE",
"499 409 OFFCURVE",
"499 384 CURVE SMOOTH",
"499 308 OFFCURVE",
"402 306 OFFCURVE",
"351 306 CURVE",
"351 233 LINE",
"364 234 OFFCURVE",
"379 234 OFFCURVE",
"394 234 CURVE SMOOTH",
"450 234 OFFCURVE",
"525 225 OFFCURVE",
"525 162 CURVE SMOOTH",
"525 116 OFFCURVE",
"481 65 OFFCURVE",
"352 65 CURVE SMOOTH",
"187 65 OFFCURVE",
"118 185 OFFCURVE",
"118 311 CURVE SMOOTH",
"118 484 OFFCURVE",
"238 640 OFFCURVE",
"440 640 CURVE SMOOTH",
"472 640 OFFCURVE",
"495 638 OFFCURVE",
"506 637 CURVE",
"523 714 LINE",
"503 718 OFFCURVE",
"471 720 OFFCURVE",
"442 720 CURVE SMOOTH",
"215 720 OFFCURVE",
"30 560 OFFCURVE",
"30 311 CURVE SMOOTH",
"30 126 OFFCURVE",
"143 -15 OFFCURVE",
"369 -15 CURVE SMOOTH"
);
}
);
width = 653;
}
);
unicode = 11282;
},
{
glyphname = u11283;
lastChange = "2018-02-06 14:55:38 +0000";
layers = (
{
layerId = UUID0;
paths = (
{
closed = 1;
nodes = (
"690 245 OFFCURVE",
"697 289 OFFCURVE",
"697 333 CURVE SMOOTH",
"697 481 OFFCURVE",
"620 630 OFFCURVE",
"369 630 CURVE SMOOTH",
"127 630 OFFCURVE",
"40 479 OFFCURVE",
"40 318 CURVE SMOOTH",
"40 281 OFFCURVE",
"45 243 OFFCURVE",
"53 207 CURVE",
"140 220 LINE",
"132 252 OFFCURVE",
"128 285 OFFCURVE",
"128 318 CURVE SMOOTH",
"128 439 OFFCURVE",
"189 550 OFFCURVE",
"369 550 CURVE SMOOTH",
"539 550 OFFCURVE",
"609 449 OFFCURVE",
"609 331 CURVE SMOOTH",
"609 295 OFFCURVE",
"604 257 OFFCURVE",
"592 220 CURVE",
"679 205 LINE"
);
}
);
width = 737;
}
);
unicode = 11283;
},
{
glyphname = u11284;
lastChange = "2018-02-06 14:55:38 +0000";
layers = (
{
layerId = UUID0;
paths = (
{
closed = 1;
nodes = (
"486 -15 LINE",
"498 65 LINE",
"472 65 LINE SMOOTH",
"402 65 OFFCURVE",
"348 76 OFFCURVE",
"302 90 CURVE",
"405 161 OFFCURVE",
"468 264 OFFCURVE",
"468 390 CURVE SMOOTH",
"468 508 OFFCURVE",
"400 630 OFFCURVE",
"201 630 CURVE SMOOTH",
"124 630 OFFCURVE",
"61 616 OFFCURVE",
"25 606 CURVE",
"47 529 LINE",
"91 543 OFFCURVE",
"142 550 OFFCURVE",
"195 550 CURVE SMOOTH",
"342 550 OFFCURVE",
"380 475 OFFCURVE",
"380 385 CURVE SMOOTH",
"380 276 OFFCURVE",
"328 186 OFFCURVE",
"209 120 CURVE",
"174 132 OFFCURVE",
"140 141 OFFCURVE",
"102 141 CURVE SMOOTH",
"48 141 OFFCURVE",
"20 106 OFFCURVE",
"20 71 CURVE SMOOTH",
"20 39 OFFCURVE",
"45 7 OFFCURVE",
"96 7 CURVE SMOOTH",
"137 7 OFFCURVE",
"186 24 OFFCURVE",
"210 38 CURVE",
"269 12 OFFCURVE",
"379 -15 OFFCURVE",
"471 -15 CURVE SMOOTH"
);
}
);
width = 518;
}
);
unicode = 11284;
},
{
glyphname = u11285;
lastChange = "2018-02-06 14:55:38 +0000";
layers = (
{
layerId = UUID0;
paths = (
{
closed = 1;
nodes = (
"389 -15 OFFCURVE",
"431 8 OFFCURVE",
"458 60 CURVE",
"482 12 OFFCURVE",
"524 -15 OFFCURVE",
"584 -15 CURVE SMOOTH",
"596 -15 OFFCURVE",
"615 -14 OFFCURVE",
"626 -10 CURVE",
"629 68 LINE",
"620 66 OFFCURVE",
"605 65 OFFCURVE",
"596 65 CURVE SMOOTH",
"523 65 OFFCURVE",
"498 137 OFFCURVE",
"498 194 CURVE SMOOTH",
"498 212 OFFCURVE",
"498 240 OFFCURVE",
"499 260 CURVE SMOOTH",
"511 538 LINE",
"575 535 LINE",
"581 614 LINE",
"250 630 LINE",
"244 553 LINE",
"421 543 LINE",
"411 271 LINE SMOOTH",
"406 122 OFFCURVE",
"371 65 OFFCURVE",
"326 65 CURVE SMOOTH",
"270 65 OFFCURVE",
"162 161 OFFCURVE",
"70 279 CURVE",
"0 229 LINE",
"134 57 OFFCURVE",
"250 -15 OFFCURVE",
"331 -15 CURVE SMOOTH"
);
}
);
width = 639;
}
);
unicode = 11285;
},
{
glyphname = u11286;
lastChange = "2018-02-06 14:55:38 +0000";
layers = (
{
layerId = UUID0;
paths = (
{
closed = 1;
nodes = (
"556 63 LINE",
"544 66 LINE SMOOTH",
"465 86 OFFCURVE",
"454 91 OFFCURVE",
"454 309 CURVE SMOOTH",
"454 408 LINE SMOOTH",
"454 505 OFFCURVE",
"450 562 OFFCURVE",
"432 630 CURVE",
"338 640 LINE",
"363 548 OFFCURVE",
"366 450 OFFCURVE",
"366 409 CURVE SMOOTH",
"366 254 LINE SMOOTH",
"366 25 OFFCURVE",
"422 8 OFFCURVE",
"531 -15 CURVE"
);
},
{
closed = 1;
nodes = (
"204 245 OFFCURVE",
"275 320 OFFCURVE",
"275 453 CURVE SMOOTH",
"275 533 OFFCURVE",
"216 616 OFFCURVE",
"82 640 CURVE",
"56 563 LINE",
"142 552 OFFCURVE",
"187 504 OFFCURVE",
"187 448 CURVE SMOOTH",
"187 376 OFFCURVE",
"148 324 OFFCURVE",
"52 323 CURVE",
"50 243 LINE"
);
}
);
width = 576;
}
);
unicode = 11286;
},
{
glyphname = u11288;
lastChange = "2018-02-06 14:55:38 +0000";
layers = (
{
layerId = UUID0;
paths = (
{
closed = 1;
nodes = (
"749 63 LINE",
"737 66 LINE SMOOTH",
"655 86 OFFCURVE",
"647 93 OFFCURVE",
"647 309 CURVE SMOOTH",
"647 385 LINE SMOOTH",
"647 464 OFFCURVE",
"654 555 OFFCURVE",
"661 630 CURVE",
"574 640 LINE",
"568 598 OFFCURVE",
"563 549 OFFCURVE",
"561 505 CURVE",
"541 432 OFFCURVE",
"512 385 OFFCURVE",
"460 385 CURVE SMOOTH",
"411 385 OFFCURVE",
"386 422 OFFCURVE",
"386 501 CURVE SMOOTH",
"386 540 OFFCURVE",
"395 584 OFFCURVE",
"402 617 CURVE",
"317 640 LINE",
"310 616 OFFCURVE",
"305 588 OFFCURVE",
"301 559 CURVE",
"280 464 OFFCURVE",
"251 385 OFFCURVE",
"192 385 CURVE SMOOTH",
"143 385 OFFCURVE",
"118 422 OFFCURVE",
"118 501 CURVE SMOOTH",
"118 540 OFFCURVE",
"127 584 OFFCURVE",
"134 617 CURVE",
"49 640 LINE",
"38 601 OFFCURVE",
"30 551 OFFCURVE",
"30 502 CURVE SMOOTH",
"30 342 OFFCURVE",
"116 305 OFFCURVE",
"190 305 CURVE SMOOTH",
"250 305 OFFCURVE",
"292 333 OFFCURVE",
"323 380 CURVE",
"354 321 OFFCURVE",
"408 305 OFFCURVE",
"458 305 CURVE SMOOTH",
"500 305 OFFCURVE",
"533 319 OFFCURVE",
"559 345 CURVE",
"559 254 LINE SMOOTH",
"559 25 OFFCURVE",
"615 8 OFFCURVE",
"724 -15 CURVE"
);
}
);
width = 769;
}
);
unicode = 11288;
},
{
glyphname = u1128A;
lastChange = "2018-02-06 14:55:38 +0000";
layers = (
{
layerId = UUID0;
paths = (
{
closed = 1;
nodes = (
"310 -15 OFFCURVE",
"379 76 OFFCURVE",
"432 204 CURVE SMOOTH",
"510 392 LINE SMOOTH",
"548 484 OFFCURVE",
"600 550 OFFCURVE",
"689 550 CURVE SMOOTH",
"737 550 OFFCURVE",
"783 543 OFFCURVE",
"829 531 CURVE",
"851 609 LINE",
"794 622 OFFCURVE",
"741 630 OFFCURVE",
"684 630 CURVE SMOOTH",
"553 630 OFFCURVE",
"479 552 OFFCURVE",
"428 427 CURVE SMOOTH",
"361 264 LINE SMOOTH",
"308 136 OFFCURVE",
"263 65 OFFCURVE",
"184 65 CURVE SMOOTH",
"133 65 OFFCURVE",
"108 100 OFFCURVE",
"108 145 CURVE SMOOTH",
"108 180 OFFCURVE",
"126 226 OFFCURVE",
"170 255 CURVE",
"121 320 LINE",
"53 280 OFFCURVE",
"20 207 OFFCURVE",
"20 140 CURVE SMOOTH",
"20 62 OFFCURVE",
"69 -15 OFFCURVE",
"184 -15 CURVE SMOOTH"
);
}
);
width = 831;
}
);
unicode = 1128A;
},
{
glyphname = u1128B;
lastChange = "2018-02-06 14:55:38 +0000";
layers = (
{
layerId = UUID0;
paths = (
{
closed = 1;
nodes = (
"354 -15 OFFCURVE",
"438 31 OFFCURVE",
"438 143 CURVE SMOOTH",
"438 206 OFFCURVE",
"410 271 OFFCURVE",
"328 354 CURVE",
"402 418 OFFCURVE",
"503 489 OFFCURVE",
"628 565 CURVE",
"585 634 LINE",
"444 547 OFFCURVE",
"341 474 OFFCURVE",
"268 410 CURVE",
"212 458 OFFCURVE",
"139 512 OFFCURVE",
"46 575 CURVE",
"0 508 LINE",
"84 452 OFFCURVE",
"154 401 OFFCURVE",
"209 354 CURVE",
"129 271 OFFCURVE",
"102 205 OFFCURVE",
"102 143 CURVE SMOOTH",
"102 30 OFFCURVE",
"188 -15 OFFCURVE",
"272 -15 CURVE SMOOTH"
);
},
{
closed = 1;
nodes = (
"229 65 OFFCURVE",
"190 91 OFFCURVE",
"190 147 CURVE SMOOTH",
"190 191 OFFCURVE",
"217 241 OFFCURVE",
"269 297 CURVE",
"322 242 OFFCURVE",
"350 193 OFFCURVE",
"350 152 CURVE SMOOTH",
"350 92 OFFCURVE",
"311 65 OFFCURVE",
"270 65 CURVE SMOOTH"
);
},
{
closed = 1;
nodes = (
"208 611 OFFCURVE",
"269 661 OFFCURVE",
"340 712 CURVE",
"288 774 LINE",
"216 720 OFFCURVE",
"157 669 OFFCURVE",
"100 616 CURVE",
"156 562 LINE"
);
},
{
closed = 1;
nodes = (
"311 526 OFFCURVE",
"362 568 OFFCURVE",
"424 613 CURVE",
"372 675 LINE",
"310 631 OFFCURVE",
"257 587 OFFCURVE",
"211 542 CURVE",
"270 486 LINE"
);
}
);
width = 628;
}
);
unicode = 1128B;
},
{
glyphname = u1128C;
lastChange = "2018-02-06 14:55:38 +0000";
layers = (
{
layerId = UUID0;
paths = (
{
closed = 1;
nodes = (
"317 -15 OFFCURVE",
"430 45 OFFCURVE",
"430 188 CURVE SMOOTH",
"430 263 OFFCURVE",
"385 308 OFFCURVE",
"321 333 CURVE",
"373 356 OFFCURVE",
"418 396 OFFCURVE",
"418 468 CURVE SMOOTH",
"418 484 OFFCURVE",
"416 499 OFFCURVE",
"411 514 CURVE",
"427 515 OFFCURVE",
"430 515 OFFCURVE",
"434 515 CURVE SMOOTH",
"460 515 OFFCURVE",
"485 501 OFFCURVE",
"488 455 CURVE SMOOTH",
"501 254 LINE SMOOTH",
"514 60 OFFCURVE",
"538 13 OFFCURVE",
"651 -11 CURVE SMOOTH",
"670 -15 LINE",
"695 63 LINE",
"672 69 LINE SMOOTH",
"610 85 OFFCURVE",
"595 115 OFFCURVE",
"587 265 CURVE SMOOTH",
"578 440 LINE SMOOTH",
"572 560 OFFCURVE",
"504 595 OFFCURVE",
"439 595 CURVE SMOOTH",
"410 595 OFFCURVE",
"383 594 OFFCURVE",
"355 590 CURVE",
"320 615 OFFCURVE",
"269 630 OFFCURVE",
"203 630 CURVE SMOOTH",
"163 630 OFFCURVE",
"112 624 OFFCURVE",
"63 615 CURVE",
"81 535 LINE",
"115 543 OFFCURVE",
"157 550 OFFCURVE",
"203 550 CURVE SMOOTH",
"303 550 OFFCURVE",
"330 505 OFFCURVE",
"330 463 CURVE SMOOTH",
"330 377 OFFCURVE",
"207 360 OFFCURVE",
"149 360 CURVE",
"149 288 LINE",
"258 288 OFFCURVE",
"342 253 OFFCURVE",
"342 177 CURVE SMOOTH",
"342 98 OFFCURVE",
"267 65 OFFCURVE",
"191 65 CURVE SMOOTH",
"124 65 OFFCURVE",
"70 92 OFFCURVE",
"27 122 CURVE",
"-20 55 LINE",
"42 8 OFFCURVE",
"118 -15 OFFCURVE",
"190 -15 CURVE SMOOTH"
);
}
);
width = 715;
}
);
unicode = 1128C;
},
{
glyphname = u1128D;
lastChange = "2018-02-06 14:55:38 +0000";
layers = (
{
layerId = UUID0;
paths = (
{
closed = 1;
nodes = (
"516 6 LINE",
"468 38 OFFCURVE",
"392 70 OFFCURVE",
"311 99 CURVE",
"381 168 OFFCURVE",
"427 293 OFFCURVE",
"427 383 CURVE SMOOTH",
"427 415 OFFCURVE",
"422 447 OFFCURVE",
"413 477 CURVE",
"468 446 OFFCURVE",
"509 391 OFFCURVE",
"524 371 CURVE SMOOTH",
"544 344 LINE",
"523 327 LINE SMOOTH",
"481 293 OFFCURVE",
"433 239 OFFCURVE",
"433 179 CURVE SMOOTH",
"433 111 OFFCURVE",
"487 56 OFFCURVE",
"576 56 CURVE SMOOTH",
"676 56 OFFCURVE",
"730 113 OFFCURVE",
"730 190 CURVE SMOOTH",
"730 232 OFFCURVE",
"704 270 OFFCURVE",
"686 295 CURVE SMOOTH",
"658 333 LINE",
"781 433 OFFCURVE",
"882 503 OFFCURVE",
"948 542 CURVE",
"905 609 LINE",
"803 553 OFFCURVE",
"694 466 OFFCURVE",
"607 394 CURVE",
"568 440 LINE SMOOTH",
"494 529 OFFCURVE",
"413 570 OFFCURVE",
"344 583 CURVE",
"308 612 OFFCURVE",
"260 630 OFFCURVE",
"197 630 CURVE SMOOTH",
"128 630 OFFCURVE",
"61 605 OFFCURVE",
"20 579 CURVE",
"47 506 LINE",
"68 519 OFFCURVE",
"122 550 OFFCURVE",
"187 550 CURVE SMOOTH",
"291 550 OFFCURVE",
"339 472 OFFCURVE",
"339 382 CURVE SMOOTH",
"339 249 OFFCURVE",
"274 169 OFFCURVE",
"236 134 CURVE",
"212 145 OFFCURVE",
"182 153 OFFCURVE",
"151 153 CURVE SMOOTH",
"94 153 OFFCURVE",
"56 121 OFFCURVE",
"56 82 CURVE SMOOTH",
"56 50 OFFCURVE",
"81 16 OFFCURVE",
"150 16 CURVE SMOOTH",
"184 16 OFFCURVE",
"222 29 OFFCURVE",
"251 44 CURVE",
"345 12 OFFCURVE",
"408 -18 OFFCURVE",
"473 -55 CURVE"
);
},
{
closed = 1;
nodes = (
"533 136 OFFCURVE",
"521 163 OFFCURVE",
"521 183 CURVE SMOOTH",
"521 213 OFFCURVE",
"542 237 OFFCURVE",
"568 258 CURVE SMOOTH",
"595 280 LINE",
"608 264 LINE SMOOTH",
"622 246 OFFCURVE",
"641 219 OFFCURVE",
"641 194 CURVE SMOOTH",
"641 167 OFFCURVE",
"621 136 OFFCURVE",
"580 136 CURVE SMOOTH"
);
}
);
width = 948;
}
);
unicode = 1128D;
},
{
glyphname = u1128F;
lastChange = "2018-02-06 14:55:38 +0000";
layers = (
{
layerId = UUID0;
paths = (
{
closed = 1;
nodes = (
"512 43 LINE",
"419 44 OFFCURVE",
"356 56 OFFCURVE",
"307 71 CURVE",
"352 103 OFFCURVE",
"387 150 OFFCURVE",
"387 216 CURVE SMOOTH",
"387 284 OFFCURVE",
"341 327 OFFCURVE",
"276 353 CURVE",
"327 375 OFFCURVE",
"370 413 OFFCURVE",
"370 483 CURVE SMOOTH",
"370 493 OFFCURVE",
"369 503 OFFCURVE",
"366 513 CURVE",
"380 515 OFFCURVE",
"391 515 OFFCURVE",
"401 515 CURVE SMOOTH",
"429 515 OFFCURVE",
"454 501 OFFCURVE",
"457 455 CURVE SMOOTH",
"465 337 LINE SMOOTH",
"478 143 OFFCURVE",
"502 96 OFFCURVE",
"615 72 CURVE SMOOTH",
"634 68 LINE",
"659 146 LINE",
"636 152 LINE SMOOTH",
"574 168 OFFCURVE",
"558 198 OFFCURVE",
"551 348 CURVE SMOOTH",
"547 440 LINE SMOOTH",
"542 560 OFFCURVE",
"473 595 OFFCURVE",
"399 595 CURVE SMOOTH",
"371 595 OFFCURVE",
"340 593 OFFCURVE",
"312 588 CURVE",
"277 613 OFFCURVE",
"225 630 OFFCURVE",
"155 630 CURVE SMOOTH",
"119 630 OFFCURVE",
"74 625 OFFCURVE",
"30 618 CURVE",
"42 537 LINE",
"74 544 OFFCURVE",
"113 550 OFFCURVE",
"155 550 CURVE SMOOTH",
"255 550 OFFCURVE",
"282 505 OFFCURVE",
"282 474 CURVE SMOOTH",
"282 398 OFFCURVE",
"180 383 OFFCURVE",
"105 379 CURVE",
"105 309 LINE",
"232 309 OFFCURVE",
"299 276 OFFCURVE",
"299 207 CURVE SMOOTH",
"299 160 OFFCURVE",
"266 123 OFFCURVE",
"226 103 CURVE",
"189 119 OFFCURVE",
"159 131 OFFCURVE",
"119 131 CURVE SMOOTH",
"69 131 OFFCURVE",
"32 103 OFFCURVE",
"32 68 CURVE SMOOTH",
"32 34 OFFCURVE",
"59 3 OFFCURVE",
"118 3 CURVE SMOOTH",
"155 3 OFFCURVE",
"196 15 OFFCURVE",
"218 27 CURVE",
"270 -3 OFFCURVE",
"377 -25 OFFCURVE",
"506 -28 CURVE"
);
}
);
width = 679;
}
);
unicode = 1128F;
},
{
glyphname = u11290;
lastChange = "2018-02-06 14:55:38 +0000";
layers = (
{
layerId = UUID0;
paths = (
{
closed = 1;
nodes = (
"411 -15 OFFCURVE",
"513 8 OFFCURVE",
"554 34 CURVE",
"528 108 LINE",
"476 80 OFFCURVE",
"401 65 OFFCURVE",
"336 65 CURVE SMOOTH",
"219 65 OFFCURVE",
"118 132 OFFCURVE",
"118 261 CURVE SMOOTH",
"118 427 OFFCURVE",
"253 536 OFFCURVE",
"403 543 CURVE",
"498 539 LINE",
"507 615 LINE",
"61 636 LINE",
"48 561 LINE",
"220 552 LINE",
"114 501 OFFCURVE",
"30 407 OFFCURVE",
"30 260 CURVE SMOOTH",
"30 113 OFFCURVE",
"127 -15 OFFCURVE",
"335 -15 CURVE SMOOTH"
);
}
);
width = 574;
}
);
unicode = 11290;
},
{
glyphname = u11291;
lastChange = "2018-02-06 14:55:38 +0000";
layers = (
{
layerId = UUID0;
paths = (
{
closed = 1;
nodes = (
"425 -15 OFFCURVE",
"529 57 OFFCURVE",
"529 191 CURVE SMOOTH",
"529 262 OFFCURVE",
"486 341 OFFCURVE",
"383 341 CURVE SMOOTH",
"270 341 OFFCURVE",
"228 255 OFFCURVE",
"228 169 CURVE SMOOTH",
"228 133 OFFCURVE",
"233 101 OFFCURVE",
"243 72 CURVE",
"160 94 OFFCURVE",
"118 168 OFFCURVE",
"118 271 CURVE SMOOTH",
"118 401 OFFCURVE",
"224 550 OFFCURVE",
"412 550 CURVE SMOOTH",
"434 550 OFFCURVE",
"456 549 OFFCURVE",
"480 545 CURVE",
"495 621 LINE",
"465 627 OFFCURVE",
"436 630 OFFCURVE",
"407 630 CURVE SMOOTH",
"200 630 OFFCURVE",
"30 476 OFFCURVE",
"30 264 CURVE SMOOTH",
"30 118 OFFCURVE",
"111 -15 OFFCURVE",
"300 -15 CURVE SMOOTH"
);
},
{
closed = 1;
nodes = (
"323 97 OFFCURVE",
"317 132 OFFCURVE",
"317 165 CURVE SMOOTH",
"317 218 OFFCURVE",
"335 261 OFFCURVE",
"385 261 CURVE SMOOTH",
"424 261 OFFCURVE",
"441 224 OFFCURVE",
"441 186 CURVE SMOOTH",
"441 113 OFFCURVE",
"395 78 OFFCURVE",
"332 68 CURVE"
);
}
);
width = 559;
}
);
unicode = 11291;
},
{
glyphname = u11292;
lastChange = "2018-02-06 14:55:38 +0000";
layers = (
{
layerId = UUID0;
paths = (
{
closed = 1;
nodes = (
"390 -15 OFFCURVE",
"423 87 OFFCURVE",
"462 210 CURVE SMOOTH",
"523 404 LINE SMOOTH",
"551 493 OFFCURVE",
"585 550 OFFCURVE",
"674 550 CURVE SMOOTH",
"723 550 OFFCURVE",
"767 545 OFFCURVE",
"816 534 CURVE",
"828 612 LINE",
"767 625 OFFCURVE",
"716 630 OFFCURVE",
"673 630 CURVE SMOOTH",
"549 630 OFFCURVE",
"483 569 OFFCURVE",
"438 427 CURVE SMOOTH",
"384 255 LINE SMOOTH",
"346 133 OFFCURVE",
"324 65 OFFCURVE",
"263 65 CURVE SMOOTH",
"220 65 OFFCURVE",
"153 122 OFFCURVE",
"68 234 CURVE",
"0 180 LINE",
"107 41 OFFCURVE",
"174 -15 OFFCURVE",
"274 -15 CURVE SMOOTH"
);
}
);
width = 808;
}
);
unicode = 11292;
},
{
glyphname = u11293;
lastChange = "2018-02-06 14:55:38 +0000";
layers = (
{
layerId = UUID0;
paths = (
{
closed = 1;
nodes = (
"486 8 OFFCURVE",
"641 106 OFFCURVE",
"641 300 CURVE SMOOTH",
"641 426 OFFCURVE",
"562 630 OFFCURVE",
"302 630 CURVE SMOOTH",
"162 630 OFFCURVE",
"69 566 OFFCURVE",
"20 509 CURVE",
"73 446 LINE",
"143 521 OFFCURVE",
"218 550 OFFCURVE",
"304 550 CURVE SMOOTH",
"339 550 OFFCURVE",
"369 545 OFFCURVE",
"396 537 CURVE",
"173 355 LINE",
"227 291 LINE",
"468 498 LINE",
"492 479 OFFCURVE",
"510 455 OFFCURVE",
"523 430 CURVE",
"277 230 LINE",
"331 166 LINE",
"549 351 LINE",
"552 334 OFFCURVE",
"553 318 OFFCURVE",
"553 302 CURVE SMOOTH",
"553 182 OFFCURVE",
"480 94 OFFCURVE",
"393 48 CURVE",
"445 -15 LINE"
);
}
);
width = 681;
}
);
unicode = 11293;
},
{
glyphname = u11294;
lastChange = "2018-02-06 14:55:38 +0000";
layers = (
{
layerId = UUID0;
paths = (
{
closed = 1;
nodes = (
"609 -15 OFFCURVE",
"696 148 OFFCURVE",
"696 337 CURVE SMOOTH",
"696 446 OFFCURVE",
"647 540 OFFCURVE",
"526 540 CURVE SMOOTH",
"423 540 OFFCURVE",
"365 457 OFFCURVE",
"365 369 CURVE SMOOTH",
"365 260 OFFCURVE",
"445 179 OFFCURVE",
"562 146 CURVE",
"528 96 OFFCURVE",
"472 65 OFFCURVE",
"385 65 CURVE SMOOTH",
"299 65 OFFCURVE",
"215 95 OFFCURVE",
"215 199 CURVE SMOOTH",
"215 219 OFFCURVE",
"220 253 OFFCURVE",
"227 288 CURVE SMOOTH",
"235 330 OFFCURVE",
"244 381 OFFCURVE",
"244 430 CURVE SMOOTH",
"244 574 OFFCURVE",
"161 630 OFFCURVE",
"15 630 CURVE SMOOTH",
"6 630 OFFCURVE",
"-3 630 OFFCURVE",
"-12 629 CURVE",
"-20 549 LINE",
"83 548 OFFCURVE",
"156 535 OFFCURVE",
"156 421 CURVE SMOOTH",
"156 385 OFFCURVE",
"151 346 OFFCURVE",
"142 307 CURVE SMOOTH",
"133 267 OFFCURVE",
"127 227 OFFCURVE",
"127 191 CURVE SMOOTH",
"127 79 OFFCURVE",
"200 -15 OFFCURVE",
"380 -15 CURVE SMOOTH"
);
},
{
closed = 0;
nodes = (
"142 307 LINE SMOOTH"
);
},
{
closed = 1;
nodes = (
"496 249 OFFCURVE",
"454 312 OFFCURVE",
"454 369 CURVE SMOOTH",
"454 410 OFFCURVE",
"472 460 OFFCURVE",
"527 460 CURVE SMOOTH",
"593 460 OFFCURVE",
"608 379 OFFCURVE",
"608 337 CURVE SMOOTH",
"608 294 OFFCURVE",
"604 253 OFFCURVE",
"594 217 CURVE"
);
}
);
width = 736;
}
);
unicode = 11294;
},
{
glyphname = u11295;
lastChange = "2018-02-06 14:55:38 +0000";
layers = (
{
layerId = UUID0;
paths = (
{
closed = 1;
nodes = (
"733 57 LINE",
"721 60 LINE SMOOTH",
"645 79 OFFCURVE",
"631 88 OFFCURVE",
"631 309 CURVE SMOOTH",
"631 408 LINE SMOOTH",
"631 505 OFFCURVE",
"627 562 OFFCURVE",
"609 630 CURVE",
"515 640 LINE",
"540 548 OFFCURVE",
"543 450 OFFCURVE",
"543 409 CURVE SMOOTH",
"543 254 LINE SMOOTH",
"543 25 OFFCURVE",
"599 8 OFFCURVE",
"708 -15 CURVE"
);
},
{
closed = 1;
nodes = (
"246 52 LINE",
"179 69 OFFCURVE",
"176 78 OFFCURVE",
"176 289 CURVE SMOOTH",
"176 308 LINE SMOOTH",
"176 405 OFFCURVE",
"172 462 OFFCURVE",
"154 530 CURVE",
"60 540 LINE",
"85 448 OFFCURVE",
"88 350 OFFCURVE",
"88 309 CURVE SMOOTH",
"88 234 LINE SMOOTH",
"88 25 OFFCURVE",
"126 1 OFFCURVE",
"215 -19 CURVE"
);
},
{
closed = 1;
nodes = (
"246 52 LINE",
"179 69 OFFCURVE",
"176 78 OFFCURVE",
"176 289 CURVE SMOOTH",
"176 308 LINE SMOOTH",
"176 405 OFFCURVE",
"172 462 OFFCURVE",
"154 530 CURVE",
"60 540 LINE",
"85 448 OFFCURVE",
"88 350 OFFCURVE",
"88 309 CURVE SMOOTH",
"88 234 LINE SMOOTH",
"88 25 OFFCURVE",
"126 1 OFFCURVE",
"215 -19 CURVE"
);
},
{
closed = 1;
nodes = (
"503 57 LINE",
"491 60 LINE SMOOTH",
"415 79 OFFCURVE",
"401 88 OFFCURVE",
"401 309 CURVE SMOOTH",
"401 408 LINE SMOOTH",
"401 505 OFFCURVE",
"397 562 OFFCURVE",
"379 630 CURVE",
"285 640 LINE",
"310 548 OFFCURVE",
"313 450 OFFCURVE",
"313 409 CURVE SMOOTH",
"313 254 LINE SMOOTH",
"313 25 OFFCURVE",
"369 8 OFFCURVE",
"478 -15 CURVE"
);
}
);
width = 753;
}
);
unicode = 11295;
},
{
glyphname = u11296;
lastChange = "2018-02-06 14:55:38 +0000";
layers = (
{
layerId = UUID0;
paths = (
{
closed = 1;
nodes = (
"380 -15 OFFCURVE",
"472 63 OFFCURVE",
"472 179 CURVE SMOOTH",
"472 266 OFFCURVE",
"423 310 OFFCURVE",
"357 333 CURVE",
"407 357 OFFCURVE",
"450 398 OFFCURVE",
"450 468 CURVE SMOOTH",
"450 556 OFFCURVE",
"383 630 OFFCURVE",
"235 630 CURVE SMOOTH",
"180 630 OFFCURVE",
"103 621 OFFCURVE",
"40 600 CURVE",
"63 523 LINE",
"100 536 OFFCURVE",
"162 550 OFFCURVE",
"235 550 CURVE SMOOTH",
"335 550 OFFCURVE",
"362 505 OFFCURVE",
"362 465 CURVE SMOOTH",
"362 361 OFFCURVE",
"209 357 OFFCURVE",
"141 357 CURVE",
"141 279 LINE",
"155 280 OFFCURVE",
"180 280 OFFCURVE",
"193 280 CURVE SMOOTH",
"310 280 OFFCURVE",
"384 255 OFFCURVE",
"384 179 CURVE SMOOTH",
"384 106 OFFCURVE",
"318 65 OFFCURVE",
"220 65 CURVE SMOOTH",
"166 65 OFFCURVE",
"101 74 OFFCURVE",
"34 87 CURVE",
"20 8 LINE",
"74 -4 OFFCURVE",
"148 -15 OFFCURVE",
"219 -15 CURVE SMOOTH"
);
}
);
width = 512;
}
);
unicode = 11296;
},
{
glyphname = u11297;
lastChange = "2018-02-06 14:55:38 +0000";
layers = (
{
layerId = UUID0;
paths = (
{
closed = 1;
nodes = (
"453 1 OFFCURVE",
"513 56 OFFCURVE",
"513 134 CURVE SMOOTH",
"513 173 OFFCURVE",
"498 210 OFFCURVE",
"467 239 CURVE",
"491 247 OFFCURVE",
"516 257 OFFCURVE",
"546 269 CURVE SMOOTH",
"672 321 LINE",
"641 396 LINE",
"505 340 LINE SMOOTH",
"428 308 OFFCURVE",
"369 286 OFFCURVE",
"325 286 CURVE SMOOTH",
"278 286 OFFCURVE",
"244 303 OFFCURVE",
"244 346 CURVE SMOOTH",
"244 391 OFFCURVE",
"275 422 OFFCURVE",
"388 471 CURVE SMOOTH",
"584 556 LINE",
"553 630 LINE",
"352 544 LINE SMOOTH",
"314 528 OFFCURVE",
"276 511 OFFCURVE",
"244 490 CURVE",
"222 559 OFFCURVE",
"160 630 OFFCURVE",
"37 630 CURVE SMOOTH",
"25 630 OFFCURVE",
"12 630 OFFCURVE",
"-2 628 CURVE",
"-10 550 LINE",
"20 550 OFFCURVE",
"60 549 OFFCURVE",
"81 544 CURVE SMOOTH",
"148 528 OFFCURVE",
"166 482 OFFCURVE",
"166 421 CURVE SMOOTH",
"166 413 OFFCURVE",
"166 406 OFFCURVE",
"165 398 CURVE",
"159 382 OFFCURVE",
"156 364 OFFCURVE",
"156 341 CURVE SMOOTH",
"156 244 OFFCURVE",
"237 206 OFFCURVE",
"322 206 CURVE SMOOTH",
"337 206 OFFCURVE",
"353 207 OFFCURVE",
"369 210 CURVE",
"407 192 OFFCURVE",
"425 161 OFFCURVE",
"425 133 CURVE SMOOTH",
"425 88 OFFCURVE",
"387 63 OFFCURVE",
"359 47 CURVE",
"406 -19 LINE"
);
}
);
width = 702;
}
);
unicode = 11297;
},
{
glyphname = u11298;
lastChange = "2018-02-06 14:55:38 +0000";
layers = (
{
layerId = UUID0;
paths = (
{
closed = 1;
nodes = (
"582 -15 OFFCURVE",
"642 25 OFFCURVE",
"686 94 CURVE",
"618 134 LINE",
"598 104 OFFCURVE",
"564 65 OFFCURVE",
"509 65 CURVE SMOOTH",
"473 65 OFFCURVE",
"448 79 OFFCURVE",
"448 113 CURVE SMOOTH",
"448 138 OFFCURVE",
"467 167 OFFCURVE",
"490 201 CURVE SMOOTH",
"526 254 OFFCURVE",
"570 320 OFFCURVE",
"570 394 CURVE SMOOTH",
"570 478 OFFCURVE",
"498 518 OFFCURVE",
"432 518 CURVE SMOOTH",
"401 518 OFFCURVE",
"375 511 OFFCURVE",
"351 500 CURVE",
"345 573 OFFCURVE",
"289 630 OFFCURVE",
"208 630 CURVE SMOOTH",
"118 630 OFFCURVE",
"46 566 OFFCURVE",
"10 500 CURVE",
"68 447 LINE",
"94 487 OFFCURVE",
"149 550 OFFCURVE",
"200 550 CURVE SMOOTH",
"252 550 OFFCURVE",
"264 508 OFFCURVE",
"264 483 CURVE SMOOTH",
"264 432 OFFCURVE",
"232 397 OFFCURVE",
"181 344 CURVE",
"236 292 LINE",
"261 312 OFFCURVE",
"287 338 OFFCURVE",
"309 366 CURVE SMOOTH",
"339 404 OFFCURVE",
"379 438 OFFCURVE",
"425 438 CURVE SMOOTH",
"457 438 OFFCURVE",
"483 421 OFFCURVE",
"483 383 CURVE SMOOTH",
"483 347 OFFCURVE",
"464 315 OFFCURVE",
"426 261 CURVE SMOOTH",
"394 215 OFFCURVE",
"361 168 OFFCURVE",
"361 109 CURVE SMOOTH",
"361 35 OFFCURVE",
"425 -15 OFFCURVE",
"509 -15 CURVE SMOOTH"
);
},
{
closed = 0;
nodes = (
"448 113 LINE SMOOTH"
);
}
);
width = 686;
}
);
unicode = 11298;
},
{
glyphname = u11299;
lastChange = "2018-02-06 14:55:38 +0000";
layers = (
{
layerId = UUID0;
paths = (
{
closed = 1;
nodes = (
"519 49 LINE",
"483 73 OFFCURVE",
"479 124 OFFCURVE",
"479 260 CURVE SMOOTH",
"479 331 OFFCURVE",
"485 381 OFFCURVE",
"493 447 CURVE",
"406 457 LINE",
"401 427 OFFCURVE",
"398 394 OFFCURVE",
"396 362 CURVE",
"368 294 OFFCURVE",
"318 219 OFFCURVE",
"220 219 CURVE SMOOTH",
"149 219 OFFCURVE",
"128 279 OFFCURVE",
"128 345 CURVE SMOOTH",
"128 383 OFFCURVE",
"141 492 OFFCURVE",
"150 551 CURVE",
"494 531 LINE",
"503 609 LINE",
"223 623 LINE SMOOTH",
"193 625 OFFCURVE",
"117 630 OFFCURVE",
"109 630 CURVE SMOOTH",
"76 630 OFFCURVE",
"72 618 OFFCURVE",
"64 570 CURVE SMOOTH",
"56 524 OFFCURVE",
"40 397 OFFCURVE",
"40 344 CURVE SMOOTH",
"40 238 OFFCURVE",
"81 139 OFFCURVE",
"218 139 CURVE SMOOTH",
"293 139 OFFCURVE",
"349 173 OFFCURVE",
"391 217 CURVE",
"392 61 OFFCURVE",
"421 0 OFFCURVE",
"487 -29 CURVE"
);
}
);
width = 559;
}
);
unicode = 11299;
},
{
glyphname = u1129A;
lastChange = "2018-02-06 14:55:38 +0000";
layers = (
{
layerId = UUID0;
paths = (
{
closed = 1;
nodes = (
"301 33 OFFCURVE",
"416 124 OFFCURVE",
"416 292 CURVE SMOOTH",
"416 461 OFFCURVE",
"306 596 OFFCURVE",
"15 630 CURVE",
"0 547 LINE",
"126 537 OFFCURVE",
"203 503 OFFCURVE",
"264 451 CURVE",
"41 259 LINE",
"92 199 LINE",
"310 386 LINE",
"324 355 OFFCURVE",
"328 323 OFFCURVE",
"328 294 CURVE SMOOTH",
"328 174 OFFCURVE",
"251 94 OFFCURVE",
"164 48 CURVE",
"216 -15 LINE"
);
}
);
width = 456;
}
);
unicode = 1129A;
},
{
glyphname = u1129B;
lastChange = "2018-02-06 14:55:38 +0000";
layers = (
{
layerId = UUID0;
paths = (
{
closed = 1;
nodes = (
"571 63 LINE",
"559 66 LINE SMOOTH",
"478 86 OFFCURVE",
"469 95 OFFCURVE",
"469 309 CURVE SMOOTH",
"469 408 LINE SMOOTH",
"469 489 OFFCURVE",
"475 555 OFFCURVE",
"483 630 CURVE",
"396 640 LINE",
"393 621 OFFCURVE",
"390 600 OFFCURVE",
"388 578 CURVE",
"376 516 OFFCURVE",
"346 363 OFFCURVE",
"215 363 CURVE SMOOTH",
"147 363 OFFCURVE",
"118 409 OFFCURVE",
"118 489 CURVE SMOOTH",
"118 538 OFFCURVE",
"129 589 OFFCURVE",
"139 621 CURVE",
"53 640 LINE",
"41 594 OFFCURVE",
"30 541 OFFCURVE",
"30 488 CURVE SMOOTH",
"30 361 OFFCURVE",
"91 283 OFFCURVE",
"208 283 CURVE SMOOTH",
"290 283 OFFCURVE",
"344 324 OFFCURVE",
"381 373 CURVE",
"381 254 LINE SMOOTH",
"381 25 OFFCURVE",
"437 8 OFFCURVE",
"546 -15 CURVE"
);
}
);
width = 591;
}
);
unicode = 1129B;
},
{
glyphname = u1129C;
lastChange = "2018-02-06 14:55:38 +0000";
layers = (
{
layerId = UUID0;
paths = (
{
closed = 1;
nodes = (
"692 63 LINE",
"680 66 LINE SMOOTH",
"602 86 OFFCURVE",
"590 89 OFFCURVE",
"590 309 CURVE SMOOTH",
"590 358 LINE SMOOTH",
"590 434 OFFCURVE",
"596 505 OFFCURVE",
"604 580 CURVE",
"517 590 LINE",
"509 536 OFFCURVE",
"505 470 OFFCURVE",
"503 420 CURVE",
"484 343 OFFCURVE",
"451 223 OFFCURVE",
"331 223 CURVE SMOOTH",
"269 223 OFFCURVE",
"249 263 OFFCURVE",
"249 328 CURVE SMOOTH",
"249 352 OFFCURVE",
"251 381 OFFCURVE",
"253 410 CURVE SMOOTH",
"255 438 OFFCURVE",
"257 466 OFFCURVE",
"257 489 CURVE SMOOTH",
"257 565 OFFCURVE",
"207 630 OFFCURVE",
"126 630 CURVE SMOOTH",
"64 630 OFFCURVE",
"15 598 OFFCURVE",
"-20 556 CURVE",
"40 500 LINE",
"61 528 OFFCURVE",
"87 550 OFFCURVE",
"118 550 CURVE SMOOTH",
"155 550 OFFCURVE",
"169 529 OFFCURVE",
"169 487 CURVE SMOOTH",
"169 472 OFFCURVE",
"168 449 OFFCURVE",
"165 419 CURVE SMOOTH",
"162 386 OFFCURVE",
"161 358 OFFCURVE",
"161 322 CURVE SMOOTH",
"161 227 OFFCURVE",
"202 143 OFFCURVE",
"329 143 CURVE SMOOTH",
"411 143 OFFCURVE",
"465 187 OFFCURVE",
"502 239 CURVE",
"504 24 OFFCURVE",
"560 7 OFFCURVE",
"667 -15 CURVE"
);
}
);
width = 712;
}
);
unicode = 1129C;
},
{
glyphname = u1129D;
lastChange = "2018-02-06 14:55:38 +0000";
layers = (
{
layerId = UUID0;
paths = (
{
closed = 1;
nodes = (
"759 63 LINE",
"747 66 LINE SMOOTH",
"668 86 OFFCURVE",
"657 90 OFFCURVE",
"657 309 CURVE SMOOTH",
"657 372 LINE SMOOTH",
"657 480 OFFCURVE",
"664 555 OFFCURVE",
"671 630 CURVE",
"584 640 LINE",
"576 589 OFFCURVE",
"572 526 OFFCURVE",
"570 477 CURVE",
"501 303 OFFCURVE",
"404 105 OFFCURVE",
"251 105 CURVE SMOOTH",
"205 105 OFFCURVE",
"179 138 OFFCURVE",
"179 178 CURVE SMOOTH",
"179 248 OFFCURVE",
"253 298 OFFCURVE",
"325 324 CURVE",
"293 395 LINE",
"265 380 OFFCURVE",
"229 372 OFFCURVE",
"198 372 CURVE SMOOTH",
"146 372 OFFCURVE",
"118 390 OFFCURVE",
"118 426 CURVE SMOOTH",
"118 475 OFFCURVE",
"173 512 OFFCURVE",
"327 549 CURVE",
"298 634 LINE",
"186 608 OFFCURVE",
"30 555 OFFCURVE",
"30 430 CURVE SMOOTH",
"30 343 OFFCURVE",
"86 305 OFFCURVE",
"150 295 CURVE",
"107 252 OFFCURVE",
"91 208 OFFCURVE",
"91 162 CURVE SMOOTH",
"91 88 OFFCURVE",
"148 25 OFFCURVE",
"245 25 CURVE SMOOTH",
"402 25 OFFCURVE",
"510 154 OFFCURVE",
"569 295 CURVE",
"569 254 LINE SMOOTH",
"569 25 OFFCURVE",
"625 8 OFFCURVE",
"734 -15 CURVE"
);
}
);
width = 779;
}
);
unicode = 1129D;
},
{
glyphname = u1129F;
lastChange = "2018-02-06 14:55:38 +0000";
layers = (
{
layerId = UUID0;
paths = (
{
closed = 1;
nodes = (
"305 -5 OFFCURVE",
"450 58 OFFCURVE",
"450 203 CURVE SMOOTH",
"450 298 OFFCURVE",
"391 351 OFFCURVE",
"320 374 CURVE",
"358 402 OFFCURVE",
"388 442 OFFCURVE",
"388 500 CURVE SMOOTH",
"388 574 OFFCURVE",
"329 630 OFFCURVE",
"210 630 CURVE SMOOTH",
"153 630 OFFCURVE",
"85 617 OFFCURVE",
"20 591 CURVE",
"48 516 LINE",
"95 537 OFFCURVE",
"158 550 OFFCURVE",
"205 550 CURVE SMOOTH",
"285 550 OFFCURVE",
"300 514 OFFCURVE",
"300 489 CURVE SMOOTH",
"300 442 OFFCURVE",
"270 413 OFFCURVE",
"232 394 CURVE",
"221 395 OFFCURVE",
"209 396 OFFCURVE",
"199 396 CURVE SMOOTH",
"131 396 OFFCURVE",
"75 372 OFFCURVE",
"75 321 CURVE SMOOTH",
"75 288 OFFCURVE",
"99 265 OFFCURVE",
"141 265 CURVE SMOOTH",
"179 265 OFFCURVE",
"214 280 OFFCURVE",
"245 302 CURVE",
"309 295 OFFCURVE",
"362 259 OFFCURVE",
"362 200 CURVE SMOOTH",
"362 100 OFFCURVE",
"216 69 OFFCURVE",
"138 66 CURVE",
"150 -14 LINE"
);
}
);
width = 490;
}
);
unicode = 1129F;
},
{
glyphname = u112A0;
lastChange = "2018-02-06 14:55:38 +0000";
layers = (
{
layerId = UUID0;
paths = (
{
closed = 1;
nodes = (
"700 59 LINE",
"612 78 OFFCURVE",
"597 86 OFFCURVE",
"597 165 CURVE SMOOTH",
"597 188 OFFCURVE",
"598 211 OFFCURVE",
"602 247 CURVE SMOOTH",
"606 280 OFFCURVE",
"607 308 OFFCURVE",
"607 334 CURVE SMOOTH",
"607 471 OFFCURVE",
"538 549 OFFCURVE",
"406 549 CURVE SMOOTH",
"333 549 OFFCURVE",
"289 524 OFFCURVE",
"250 485 CURVE",
"232 581 OFFCURVE",
"139 630 OFFCURVE",
"29 630 CURVE SMOOTH",
"16 630 OFFCURVE",
"4 630 OFFCURVE",
"-3 629 CURVE",
"-10 551 LINE",
"118 551 OFFCURVE",
"174 519 OFFCURVE",
"174 431 CURVE SMOOTH",
"174 391 OFFCURVE",
"167 340 OFFCURVE",
"158 274 CURVE SMOOTH",
"135 101 LINE",
"222 101 LINE",
"243 266 LINE SMOOTH",
"261 407 OFFCURVE",
"320 469 OFFCURVE",
"402 469 CURVE SMOOTH",
"450 469 OFFCURVE",
"519 454 OFFCURVE",
"519 329 CURVE SMOOTH",
"519 308 OFFCURVE",
"518 287 OFFCURVE",
"515 257 CURVE SMOOTH",
"511 221 OFFCURVE",
"509 193 OFFCURVE",
"509 159 CURVE SMOOTH",
"509 49 OFFCURVE",
"550 14 OFFCURVE",
"611 -5 CURVE SMOOTH",
"627 -10 OFFCURVE",
"656 -16 OFFCURVE",
"677 -19 CURVE"
);
}
);
width = 720;
}
);
unicode = 112A0;
},
{
glyphname = u112A1;
lastChange = "2018-02-06 14:55:38 +0000";
layers = (
{
layerId = UUID0;
paths = (
{
closed = 1;
nodes = (
"647 63 LINE",
"635 66 LINE SMOOTH",
"558 85 OFFCURVE",
"545 90 OFFCURVE",
"545 309 CURVE SMOOTH",
"545 367 LINE SMOOTH",
"545 458 OFFCURVE",
"552 535 OFFCURVE",
"559 610 CURVE",
"473 630 LINE",
"249 630 OFFCURVE",
"30 599 OFFCURVE",
"30 452 CURVE SMOOTH",
"30 400 OFFCURVE",
"65 364 OFFCURVE",
"110 343 CURVE",
"73 317 OFFCURVE",
"47 281 OFFCURVE",
"47 218 CURVE SMOOTH",
"47 155 OFFCURVE",
"104 92 OFFCURVE",
"201 92 CURVE SMOOTH",
"308 92 OFFCURVE",
"394 146 OFFCURVE",
"457 221 CURVE",
"463 23 OFFCURVE",
"518 7 OFFCURVE",
"622 -15 CURVE"
);
},
{
closed = 1;
nodes = (
"161 172 OFFCURVE",
"135 197 OFFCURVE",
"135 231 CURVE SMOOTH",
"135 292 OFFCURVE",
"183 311 OFFCURVE",
"212 320 CURVE",
"218 320 LINE",
"218 391 LINE",
"142 400 OFFCURVE",
"118 425 OFFCURVE",
"118 458 CURVE SMOOTH",
"118 516 OFFCURVE",
"248 550 OFFCURVE",
"464 554 CURVE",
"458 487 OFFCURVE",
"457 419 OFFCURVE",
"457 389 CURVE SMOOTH",
"457 356 LINE",
"394 248 OFFCURVE",
"311 172 OFFCURVE",
"207 172 CURVE SMOOTH"
);
}
);
width = 667;
}
);
unicode = 112A1;
},
{
glyphname = u112A2;
lastChange = "2018-02-06 14:55:38 +0000";
layers = (
{
layerId = UUID0;
paths = (
{
closed = 1;
nodes = (
"354 -15 OFFCURVE",
"438 31 OFFCURVE",
"438 143 CURVE SMOOTH",
"438 206 OFFCURVE",
"410 271 OFFCURVE",
"328 354 CURVE",
"402 418 OFFCURVE",
"503 489 OFFCURVE",
"628 565 CURVE",
"585 634 LINE",
"444 547 OFFCURVE",
"341 474 OFFCURVE",
"268 410 CURVE",
"212 458 OFFCURVE",
"139 512 OFFCURVE",
"46 575 CURVE",
"0 508 LINE",
"84 452 OFFCURVE",
"154 401 OFFCURVE",
"209 354 CURVE",
"129 271 OFFCURVE",
"102 205 OFFCURVE",
"102 143 CURVE SMOOTH",
"102 30 OFFCURVE",
"188 -15 OFFCURVE",
"272 -15 CURVE SMOOTH"
);
},
{
closed = 1;
nodes = (
"229 65 OFFCURVE",
"190 91 OFFCURVE",
"190 147 CURVE SMOOTH",
"190 191 OFFCURVE",
"217 241 OFFCURVE",
"269 297 CURVE",
"322 242 OFFCURVE",
"350 193 OFFCURVE",
"350 152 CURVE SMOOTH",
"350 92 OFFCURVE",
"311 65 OFFCURVE",
"270 65 CURVE SMOOTH"
);
}
);
width = 628;
}
);
unicode = 112A2;
},
{
glyphname = u112A3;
lastChange = "2018-02-06 14:55:38 +0000";
layers = (
{
layerId = UUID0;
paths = (
{
closed = 1;
nodes = (
"407 8 OFFCURVE",
"562 106 OFFCURVE",
"562 300 CURVE SMOOTH",
"562 349 OFFCURVE",
"550 411 OFFCURVE",
"519 467 CURVE",
"559 505 OFFCURVE",
"597 544 OFFCURVE",
"634 585 CURVE",
"579 640 LINE",
"545 604 OFFCURVE",
"510 568 OFFCURVE",
"472 533 CURVE",
"419 589 OFFCURVE",
"339 630 OFFCURVE",
"223 630 CURVE SMOOTH",
"127 630 OFFCURVE",
"53 600 OFFCURVE",
"0 562 CURVE",
"49 495 LINE",
"103 534 OFFCURVE",
"161 550 OFFCURVE",
"225 550 CURVE SMOOTH",
"313 550 OFFCURVE",
"372 520 OFFCURVE",
"411 477 CURVE",
"339 414 OFFCURVE",
"264 355 OFFCURVE",
"193 306 CURVE",
"242 242 LINE",
"315 295 OFFCURVE",
"386 350 OFFCURVE",
"454 409 CURVE",
"468 373 OFFCURVE",
"474 336 OFFCURVE",
"474 302 CURVE SMOOTH",
"474 182 OFFCURVE",
"401 94 OFFCURVE",
"314 48 CURVE",
"366 -15 LINE"
);
}
);
width = 644;
}
);
unicode = 112A3;
},
{
glyphname = u112A4;
lastChange = "2018-02-06 14:55:38 +0000";
layers = (
{
layerId = UUID0;
paths = (
{
closed = 1;
nodes = (
"453 -15 OFFCURVE",
"579 32 OFFCURVE",
"644 115 CURVE",
"585 171 LINE",
"536 107 OFFCURVE",
"432 64 OFFCURVE",
"341 64 CURVE SMOOTH",
"236 64 OFFCURVE",
"171 101 OFFCURVE",
"171 162 CURVE SMOOTH",
"171 200 OFFCURVE",
"193 244 OFFCURVE",
"279 275 CURVE",
"311 277 OFFCURVE",
"348 281 OFFCURVE",
"384 288 CURVE",
"369 367 LINE",
"336 360 OFFCURVE",
"297 355 OFFCURVE",
"259 355 CURVE SMOOTH",
"167 355 OFFCURVE",
"118 395 OFFCURVE",
"118 451 CURVE SMOOTH",
"118 509 OFFCURVE",
"176 550 OFFCURVE",
"269 550 CURVE SMOOTH",
"297 550 OFFCURVE",
"328 547 OFFCURVE",
"354 543 CURVE",
"367 622 LINE",
"330 628 OFFCURVE",
"293 630 OFFCURVE",
"263 630 CURVE SMOOTH",
"105 630 OFFCURVE",
"30 540 OFFCURVE",
"30 453 CURVE SMOOTH",
"30 365 OFFCURVE",
"77 312 OFFCURVE",
"151 289 CURVE",
"104 252 OFFCURVE",
"83 208 OFFCURVE",
"83 158 CURVE SMOOTH",
"83 44 OFFCURVE",
"195 -15 OFFCURVE",
"334 -15 CURVE SMOOTH"
);
}
);
width = 634;
}
);
unicode = 112A4;
},
{
glyphname = u112A5;
lastChange = "2018-02-06 14:55:38 +0000";
layers = (
{
layerId = UUID0;
paths = (
{
closed = 1;
nodes = (
"546 55 OFFCURVE",
"591 138 OFFCURVE",
"591 217 CURVE SMOOTH",
"591 298 OFFCURVE",
"525 359 OFFCURVE",
"439 368 CURVE",
"519 456 OFFCURVE",
"594 543 OFFCURVE",
"637 599 CURVE",
"578 651 LINE",
"532 593 OFFCURVE",
"454 504 OFFCURVE",
"372 415 CURVE",
"371 502 OFFCURVE",
"306 571 OFFCURVE",
"202 571 CURVE SMOOTH",
"127 571 OFFCURVE",
"62 527 OFFCURVE",
"0 438 CURVE",
"62 393 LINE",
"98 440 OFFCURVE",
"147 489 OFFCURVE",
"201 489 CURVE SMOOTH",
"274 489 OFFCURVE",
"290 431 OFFCURVE",
"290 403 CURVE SMOOTH",
"290 324 OFFCURVE",
"242 272 OFFCURVE",
"146 180 CURVE",
"203 124 LINE",
"244 163 OFFCURVE",
"298 217 OFFCURVE",
"353 275 CURVE",
"373 286 OFFCURVE",
"394 293 OFFCURVE",
"415 293 CURVE SMOOTH",
"488 293 OFFCURVE",
"504 235 OFFCURVE",
"504 207 CURVE SMOOTH",
"504 148 OFFCURVE",
"455 81 OFFCURVE",
"417 41 CURVE",
"478 -15 LINE"
);
}
);
width = 667;
}
);
unicode = 112A5;
},
{
glyphname = u112A6;
lastChange = "2018-02-06 14:55:38 +0000";
layers = (
{
layerId = UUID0;
paths = (
{
closed = 1;
nodes = (
"360 -15 OFFCURVE",
"528 43 OFFCURVE",
"528 206 CURVE SMOOTH",
"528 329 OFFCURVE",
"438 372 OFFCURVE",
"344 372 CURVE SMOOTH",
"316 372 OFFCURVE",
"290 369 OFFCURVE",
"266 365 CURVE SMOOTH",
"246 362 OFFCURVE",
"224 359 OFFCURVE",
"208 359 CURVE SMOOTH",
"173 359 OFFCURVE",
"146 366 OFFCURVE",
"146 399 CURVE SMOOTH",
"146 453 OFFCURVE",
"263 509 OFFCURVE",
"415 554 CURVE",
"388 630 LINE",
"170 566 OFFCURVE",
"58 501 OFFCURVE",
"58 390 CURVE SMOOTH",
"58 327 OFFCURVE",
"103 279 OFFCURVE",
"190 279 CURVE SMOOTH",
"219 279 OFFCURVE",
"250 283 OFFCURVE",
"277 287 CURVE SMOOTH",
"297 290 OFFCURVE",
"315 292 OFFCURVE",
"330 292 CURVE SMOOTH",
"408 292 OFFCURVE",
"440 258 OFFCURVE",
"440 201 CURVE SMOOTH",
"440 99 OFFCURVE",
"320 65 OFFCURVE",
"222 65 CURVE SMOOTH",
"147 65 OFFCURVE",
"93 74 OFFCURVE",
"28 97 CURVE",
"0 18 LINE",
"58 -3 OFFCURVE",
"129 -15 OFFCURVE",
"200 -15 CURVE SMOOTH"
);
}
);
width = 568;
}
);
unicode = 112A6;
},
{
glyphname = u112A7;
lastChange = "2018-02-06 14:55:38 +0000";
layers = (
{
layerId = UUID0;
paths = (
{
closed = 1;
nodes = (
"815 -15 OFFCURVE",
"869 2 OFFCURVE",
"932 56 CURVE",
"881 124 LINE",
"841 89 OFFCURVE",
"805 65 OFFCURVE",
"769 65 CURVE SMOOTH",
"704 65 OFFCURVE",
"663 141 OFFCURVE",
"619 282 CURVE SMOOTH",
"606 323 LINE",
"597 402 OFFCURVE",
"538 453 OFFCURVE",
"456 453 CURVE SMOOTH",
"431 453 OFFCURVE",
"409 448 OFFCURVE",
"389 437 CURVE",
"391 451 OFFCURVE",
"391 462 OFFCURVE",
"391 473 CURVE SMOOTH",
"391 555 OFFCURVE",
"342 630 OFFCURVE",
"233 630 CURVE SMOOTH",
"147 630 OFFCURVE",
"66 566 OFFCURVE",
"0 468 CURVE",
"62 418 LINE",
"94 466 OFFCURVE",
"166 550 OFFCURVE",
"230 550 CURVE SMOOTH",
"289 550 OFFCURVE",
"303 506 OFFCURVE",
"303 466 CURVE SMOOTH",
"303 393 OFFCURVE",
"250 332 OFFCURVE",
"212 288 CURVE",
"271 230 LINE",
"317 287 OFFCURVE",
"387 373 OFFCURVE",
"449 373 CURVE SMOOTH",
"500 373 OFFCURVE",
"521 331 OFFCURVE",
"521 296 CURVE SMOOTH",
"521 214 OFFCURVE",
"433 124 OFFCURVE",
"371 62 CURVE",
"436 2 LINE",
"499 62 OFFCURVE",
"541 114 OFFCURVE",
"568 160 CURVE",
"607 59 OFFCURVE",
"663 -15 OFFCURVE",
"767 -15 CURVE SMOOTH"
);
}
);
width = 952;
}
);
unicode = 112A7;
},
{
glyphname = u112A8;
lastChange = "2018-02-06 14:55:38 +0000";
layers = (
{
layerId = UUID0;
paths = (
{
closed = 1;
nodes = (
"322 -15 OFFCURVE",
"435 45 OFFCURVE",
"435 188 CURVE SMOOTH",
"435 241 OFFCURVE",
"413 280 OFFCURVE",
"385 309 CURVE",
"411 316 OFFCURVE",
"435 321 OFFCURVE",
"454 321 CURVE SMOOTH",
"500 321 OFFCURVE",
"522 305 OFFCURVE",
"525 266 CURVE SMOOTH",
"531 181 LINE SMOOTH",
"537 102 OFFCURVE",
"545 64 OFFCURVE",
"590 30 CURVE",
"649 85 LINE",
"631 104 OFFCURVE",
"613 139 OFFCURVE",
"611 185 CURVE SMOOTH",
"608 267 LINE SMOOTH",
"604 366 OFFCURVE",
"545 401 OFFCURVE",
"465 401 CURVE SMOOTH",
"440 401 OFFCURVE",
"413 397 OFFCURVE",
"387 391 CURVE",
"403 417 OFFCURVE",
"413 447 OFFCURVE",
"413 480 CURVE SMOOTH",
"413 556 OFFCURVE",
"356 630 OFFCURVE",
"208 630 CURVE SMOOTH",
"168 630 OFFCURVE",
"117 624 OFFCURVE",
"68 615 CURVE",
"86 535 LINE",
"120 543 OFFCURVE",
"162 550 OFFCURVE",
"208 550 CURVE SMOOTH",
"308 550 OFFCURVE",
"325 505 OFFCURVE",
"325 463 CURVE SMOOTH",
"325 369 OFFCURVE",
"217 330 OFFCURVE",
"143 325 CURVE",
"153 246 LINE",
"194 247 OFFCURVE",
"245 263 OFFCURVE",
"296 280 CURVE",
"331 257 OFFCURVE",
"347 217 OFFCURVE",
"347 177 CURVE SMOOTH",
"347 98 OFFCURVE",
"272 65 OFFCURVE",
"196 65 CURVE SMOOTH",
"142 65 OFFCURVE",
"97 83 OFFCURVE",
"59 105 CURVE",
"20 32 LINE",
"75 0 OFFCURVE",
"136 -15 OFFCURVE",
"195 -15 CURVE SMOOTH"
);
}
);
width = 669;
}
);
unicode = 112A8;
},
{
glyphname = u112A9;
lastChange = "2018-02-06 14:55:38 +0000";
layers = (
{
layerId = UUID0;
paths = (
{
closed = 1;
nodes = (
"216 358 OFFCURVE",
"256 400 OFFCURVE",
"256 453 CURVE SMOOTH",
"256 506 OFFCURVE",
"216 549 OFFCURVE",
"168 549 CURVE SMOOTH",
"120 549 OFFCURVE",
"80 506 OFFCURVE",
"80 453 CURVE SMOOTH",
"80 400 OFFCURVE",
"120 358 OFFCURVE",
"168 358 CURVE SMOOTH"
);
},
{
closed = 1;
nodes = (
"276 50 OFFCURVE",
"316 92 OFFCURVE",
"316 145 CURVE SMOOTH",
"316 198 OFFCURVE",
"276 241 OFFCURVE",
"228 241 CURVE SMOOTH",
"180 241 OFFCURVE",
"140 198 OFFCURVE",
"140 145 CURVE SMOOTH",
"140 92 OFFCURVE",
"180 50 OFFCURVE",
"228 50 CURVE SMOOTH"
);
}
